# xmcd CD database file
#
# Track frame offsets:
#	150
#	31930
#	52910
#	68235
#	92767
#	120527
#	137902
#	157600
#
# Disc length: 2453 seconds
#
# Revision: 0
# Processed by: cddbd v1.5.1PL0 Copyright (c) Steve Scherf et al.
# Submitted via: CDex 1.51
#
DISCID=5d099308
DTITLE=淡海悟郎 - グイン・サーガ　辺境編
DYEAR=1900
DGENRE=サウンドトラック
TTITLE0=死霊の森〜戦士グイン
TTITLE1=パロの真珠
TTITLE2=黒伯爵の砦
TTITLE3=スタフォロスの戦い
TTITLE4=辺境
TTITLE5=モンゴールの進軍
TTITLE6=砂漠の民〜セムとラゴン〜
TTITLE7=辺境の王者
EXTD=
EXTT0=
EXTT1=
EXTT2=
EXTT3=
EXTT4=
EXTT5=
EXTT6=
EXTT7=
PLAYORDER=
